<svg width="24" height="24" viewBox="0 0 24 24" fill="none" xmlns="http://www.w3.org/2000/svg">
<path fill-rule="evenodd" clip-rule="evenodd" d="M13.5133 3.80601C14.5864 2.73125 16.3269 2.7306 17.4009 3.80454L19.8927 6.29639C20.9575 7.36117 20.9686 9.08493 19.9175 10.1633L10.6844 19.6366C9.97887 20.3604 9.01121 20.7686 8.00077 20.7686L5.07018 20.7684C3.88825 20.7684 2.94435 19.7831 2.99406 18.6014L3.05233 17.2162L3.11059 15.831L3.11972 15.6139C3.15922 14.6749 3.5495 13.7849 4.21334 13.12L6.27229 11.058C6.56496 10.7648 7.03965 10.7647 7.33254 11.0576C7.62544 11.3505 7.62562 11.8255 7.33295 12.1186L5.274 14.1807C4.87569 14.5796 4.64153 15.1136 4.61783 15.677L4.6087 15.8941L4.55043 17.2793L4.49217 18.6645C4.47833 18.9935 4.74115 19.2679 5.07024 19.2679L8.00084 19.268C8.6071 19.268 9.1877 19.0231 9.61101 18.5888L16.1437 11.8862L14.3552 10.0977C14.0623 9.80476 14.0623 9.32989 14.3552 9.03699C14.6481 8.7441 15.1229 8.7441 15.4158 9.03699L17.1908 10.8119L18.8441 9.11554C19.3219 8.62537 19.3169 7.84184 18.8329 7.35785L16.341 4.866C15.8529 4.37784 15.0617 4.37814 14.5739 4.86667L10.2177 9.22954C9.92498 9.52266 9.45029 9.52284 9.15739 9.22994C8.8645 8.93705 8.86432 8.462 9.15699 8.16888L13.5133 3.80601ZM20.5144 20.6953C20.9284 20.6953 21.2641 20.3594 21.2641 19.945C21.2641 19.5306 20.9284 19.1947 20.5144 19.1947H14.3926C13.9786 19.1947 13.6429 19.5306 13.6429 19.945C13.6429 20.3594 13.9786 20.6953 14.3926 20.6953H20.5144Z" fill="#111111"/>
</svg>
