<svg width="439" height="104" viewBox="0 0 439 104" fill="none" xmlns="http://www.w3.org/2000/svg">
<path fill-rule="evenodd" clip-rule="evenodd" d="M7.63977 0.786878C4.77593 1.55912 2.57064 3.45136 1.24792 6.27124L0.519643 7.82412L0.436483 51.3641C0.360603 91.0936 0.393643 95.0564 0.815044 96.6451C1.54304 99.3894 3.25888 101.473 5.97965 102.916L7.23965 103.584H50.6397H94.0397L95.3378 102.938C97.4358 101.894 98.8358 100.504 99.8379 98.4682L100.76 96.5959V52.07V7.54412L100.161 6.24996C99.4498 4.71108 97.7942 2.81184 96.3942 1.92816C93.861 0.328799 96.0952 0.402439 50.6587 0.422879C18.5144 0.437439 8.62537 0.521158 7.63977 0.786878ZM42.0949 16.6497C54.3382 17.3945 63.6994 20.8696 71.2933 27.4894C75.4004 31.0697 79.023 35.9249 81.4226 41.0646C83.914 46.4014 84.7831 50.4239 84.7678 56.5441C84.7577 60.4509 84.6641 61.3671 84.0367 63.7048C82.6476 68.8787 80.6176 72.7485 77.2397 76.6618C72.3304 82.3492 64.3098 86.6435 56.2229 87.9142C51.9436 88.5867 45.1953 88.358 40.6803 87.3878C36.0995 86.4033 30.3825 84.4567 29.9258 83.726C29.7259 83.4059 29.1609 80.8131 28.67 77.9641C28.1795 75.1151 26.7106 67.1771 25.4061 60.3241C24.1015 53.4711 22.4159 44.3577 21.6602 40.072C20.349 32.6372 20.233 32.1836 19.1287 30.1712C16.8722 26.0597 15.9672 22.4967 16.9338 21.5298C17.1572 21.3067 18.4063 20.6904 19.7097 20.1604C24.2768 18.304 29.1835 17.1562 34.6318 16.6702C36.0441 16.5442 37.2627 16.4249 37.3397 16.405C37.4167 16.3854 39.5564 16.4954 42.0949 16.6497ZM46.9017 44.0754C45.855 49.9445 41.5016 74.1628 41.2933 75.2744L41.0368 76.645L44.8582 76.4837C54.4236 76.0803 61.7755 72.1723 65.0227 65.7654C66.1701 63.501 66.5655 61.5032 66.3745 58.9347C66.1713 56.2 65.326 53.8021 63.6784 51.2868C60.3856 46.2594 55.3204 43.2268 49.3603 42.7144L47.1777 42.527L46.9017 44.0754Z" fill="#1376F8"/>
<path fill-rule="evenodd" clip-rule="evenodd" d="M134.5 27.6823C133.148 28.0348 132.421 28.6214 131.832 29.8361C131.33 30.8712 131.28 31.5768 131.28 37.615C131.28 42.6738 131.373 44.4703 131.67 45.1565C131.884 45.6524 135.631 49.6024 140 53.939C148.48 62.3569 148.729 62.5412 150.725 61.8826C151.256 61.7071 152.076 61.1258 152.546 60.5907C153.228 59.8137 153.4 59.364 153.4 58.3541C153.4 57.6585 153.219 56.7497 152.998 56.3336C152.777 55.9178 149.564 52.5547 145.858 48.8598L139.12 42.1421V38.6832V35.2244L145.49 35.3375C151.356 35.4417 151.992 35.5027 153.54 36.1072C155.789 36.9864 158.388 39.591 159.318 41.8982C159.963 43.4964 159.98 43.7518 159.98 52.0776V60.6176L159.202 62.278C158.774 63.1913 157.997 64.4595 157.476 65.0965C156.501 66.2853 154.044 67.7707 152.245 68.2579L151.23 68.5329L144.965 62.2365C141.519 58.7735 138.208 55.5751 137.608 55.1287C135.264 53.388 131.937 54.6791 131.401 57.5373C131.053 59.3923 131.885 60.4529 139.996 68.5032C148.483 76.9262 148.129 76.6865 151.54 76.3326C155.703 75.9005 160.373 73.5113 163.142 70.3963C165.093 68.2028 166.979 64.355 167.559 61.3867C168.192 58.148 168.009 43.8414 167.302 41.2976C166.404 38.0695 164.933 35.6049 162.363 33.0239C159.727 30.3767 157.855 29.2405 154.518 28.2622C152.598 27.6999 151.691 27.6395 143.88 27.5552C139.183 27.5045 134.962 27.5616 134.5 27.6823ZM244.458 27.7366C243.4 27.9603 242.553 28.6461 241.991 29.733C241.395 30.8849 241.426 59.5667 242.026 62.1105C243.158 66.9117 245.982 70.9269 250.162 73.6754C253.48 75.8574 259.401 77.0583 261.46 75.9666C263.422 74.9261 264.205 72.6853 263.244 70.8575C262.459 69.3631 261.534 68.8532 259.117 68.5822C255.197 68.1426 252.335 66.2585 250.529 62.9281L249.58 61.1776L249.491 54.8328L249.402 48.488L255.091 48.3928C260.401 48.304 260.847 48.2559 261.785 47.6723C264.317 46.0979 264.24 42.3465 261.648 40.9367C260.934 40.5486 259.768 40.4467 255.11 40.366L249.44 40.2677L249.433 36.0227C249.429 33.688 249.312 31.2848 249.172 30.6822C248.688 28.5931 246.593 27.2844 244.458 27.7366ZM318.88 27.7593C312.657 28.4263 307.472 32.1175 304.581 37.9376C302.767 41.5905 302.581 43.0761 302.705 52.9176C302.81 61.3257 302.824 61.4931 303.575 63.7578C305.018 68.1104 308.489 72.2532 312.392 74.283C315.466 75.8815 317.18 76.2788 320.98 76.2735C323.883 76.2693 324.652 76.1646 326.64 75.504C333.281 73.2962 338.069 67.4423 339.06 60.3171C339.559 56.7334 338.447 54.683 335.846 54.3898C333.106 54.081 331.918 55.3049 331.365 59.0045C330.682 63.5741 328.263 66.6877 324.347 68.035C319.941 69.551 314.978 67.9236 312.375 64.1083C310.622 61.5391 310.435 60.2267 310.534 51.1611L310.62 43.2436L311.536 41.3824C314.78 34.7974 323.139 33.3495 328.273 38.4839C330.079 40.289 330.899 42.0105 331.325 44.8838C331.719 47.5519 331.999 48.1713 333.198 49.0247C335.091 50.3724 338 49.4845 338.878 47.2913C339.797 44.9936 338.501 39.4493 336.231 35.965C332.43 30.1303 325.839 27.0134 318.88 27.7593ZM187.28 40.6197C184.761 40.8608 183.286 41.3105 180.82 42.5889C176.655 44.7477 173.454 48.523 171.974 53.0209C171.352 54.9112 171.225 55.7965 171.229 58.2376C171.234 61.6768 171.761 63.9667 173.165 66.6446C178.439 76.705 191.326 79.5316 200.148 72.5632C202.825 70.4487 203.518 68.6541 202.438 66.6331C201.093 64.1176 198.169 63.9448 195.68 66.2338C195.295 66.5877 194.287 67.2317 193.44 67.6652C192.053 68.3744 191.621 68.4522 189.1 68.4497C186.829 68.4472 186.05 68.3321 184.979 67.8419C183.354 67.0979 180.969 64.91 180.253 63.5055L179.72 62.4597L191.97 62.3788C205.953 62.2861 205.619 62.3399 206.647 60.0147C207.158 58.86 207.179 58.5475 206.889 56.3694C206.077 50.2679 202.675 45.3368 197.379 42.587C194.061 40.8636 190.986 40.2644 187.28 40.6197ZM213.371 40.5976C212.861 40.7169 212.12 41.1119 211.725 41.4759C210.237 42.8476 210.24 42.8202 210.241 58.2986C210.242 67.3415 210.35 73.0443 210.533 73.7022C210.891 74.9914 212.338 76.1593 213.799 76.3373C215.152 76.5025 216.594 75.7782 217.444 74.5061C218.075 73.5617 218.08 73.4824 218.081 63.5861C218.082 57.4942 218.197 53.2063 218.376 52.56C218.538 51.9782 219.061 51.0573 219.538 50.5135C222.515 47.1238 227.737 47.6849 229.69 51.6041L230.4 53.0276L230.4 63.1225C230.4 72.1802 230.451 73.3161 230.89 74.1777C232.296 76.9346 235.865 77.109 237.604 74.5061C238.236 73.56 238.24 73.4981 238.235 63.3061C238.231 51.9395 238.105 50.8265 236.483 47.7673C234.775 44.5489 231.358 41.8898 227.644 40.8896C225.091 40.2019 220.847 40.5917 218.643 41.7159C217.688 42.2031 217.536 42.2154 217.217 41.8307C216.395 40.8398 214.684 40.2913 213.371 40.5976ZM279.4 40.6393C273.493 41.2727 268.047 45.1151 265.374 50.5376C263.899 53.5283 263.337 56.2734 263.55 59.4421C264.167 68.6169 271.344 75.826 280.38 76.3477C284.255 76.5714 286.293 76.0349 291.508 73.4167C291.622 73.359 291.83 73.6059 291.968 73.9649C292.446 75.2042 294.205 76.4376 295.492 76.4376C296.632 76.4376 298.378 75.4033 298.924 74.4048C299.381 73.5684 299.42 72.3143 299.42 58.328C299.42 43.4438 299.409 43.1442 298.842 42.3854C297.898 41.1209 296.949 40.5651 295.702 40.548C294.228 40.5276 292.853 41.3191 292.168 42.5819L291.637 43.5617L289.648 42.5226C286.431 40.8417 283.144 40.2381 279.4 40.6393ZM358.36 40.6393C352.453 41.2727 347.007 45.1151 344.334 50.5376C340.098 59.1269 343.328 69.3793 351.78 74.1752C354.596 75.7731 356.762 76.299 360.46 76.2825C363.359 76.2693 364.118 76.1637 365.995 75.5125C367.191 75.0975 368.669 74.4429 369.279 74.0578C369.889 73.6726 370.442 73.3576 370.506 73.3576C370.571 73.3576 370.884 73.7974 371.201 74.335C372.924 77.2552 376.896 76.9718 378.088 73.8439C378.488 72.7959 378.531 70.9375 378.46 57.9077C378.382 43.5118 378.366 43.1394 377.802 42.3851C376.858 41.1206 375.908 40.5651 374.662 40.548C373.179 40.5273 371.822 41.3197 371.082 42.6393C370.726 43.2735 370.403 43.5706 370.242 43.4116C370.098 43.2696 369.221 42.7785 368.295 42.3201C365.275 40.826 361.917 40.2579 358.36 40.6393ZM384.82 40.5987C383.504 40.8846 382.75 41.4832 382.152 42.7161C381.624 43.8047 381.6 44.4935 381.6 58.5361C381.6 71.9601 381.642 73.2999 382.09 74.1777C383.454 76.8525 386.927 77.1096 388.72 74.668C389.27 73.9181 389.307 73.4222 389.44 64.868L389.58 55.8576L390.34 54.3092C390.758 53.4574 391.55 52.2355 392.099 51.5937C393.481 49.9795 396.428 48.542 398.881 48.2855C401.179 48.0456 402.169 47.5785 402.891 46.3939C403.946 44.6635 403.356 42.1295 401.635 41.0019C400.821 40.4685 397.835 40.408 395.719 40.8821C394.034 41.2598 391.331 42.3691 390.291 43.1097L389.458 43.7028L389.052 42.732C388.41 41.194 386.502 40.2327 384.82 40.5987ZM419.4 40.6197C416.878 40.861 415.401 41.3119 412.96 42.5853C408.774 44.7687 405.543 48.5725 404.116 52.9974C403.26 55.6535 403.076 59.7882 403.696 62.4376C404.661 66.5575 407.721 70.9608 411.271 73.3366C417.836 77.7306 426.206 77.3955 432.348 72.4921C435.044 70.34 435.663 68.6989 434.558 66.6331C433.896 65.3949 432.564 64.6076 431.162 64.6269C429.878 64.6448 429.42 64.8629 427.771 66.2439C426.115 67.6302 424.393 68.3285 422.169 68.5161C419.996 68.6992 417.802 68.2526 416.134 67.2872C414.805 66.5186 412.942 64.5975 412.276 63.3095L411.825 62.4376L423.522 62.4359C431.13 62.4351 435.606 62.3273 436.323 62.1279C436.931 61.9593 437.781 61.4427 438.213 60.9799C438.952 60.1889 439 59.9893 439 57.6625C439 54.4517 438.096 51.5067 436.244 48.6809C432.461 42.9104 426.294 39.9589 419.4 40.6197ZM191.628 48.5916C194.466 49.3308 196.716 51.1222 198.028 53.6876L198.494 54.5976H189.107C183.944 54.5976 179.72 54.4931 179.72 54.3655C179.72 54.2378 180.196 53.4501 180.779 52.6155C182.06 50.7798 184.355 49.1524 186.44 48.6014C188.46 48.0674 189.607 48.0652 191.628 48.5916ZM283.689 48.5762C288.049 49.7119 290.689 52.5519 291.451 56.9244C292.742 64.336 285.422 70.461 278.161 68.0448C275.67 67.2158 273.374 65.1292 272.232 62.6565C271.525 61.1269 271.42 60.5683 271.42 58.3717C271.42 56.0821 271.506 55.6711 272.34 53.9765C273.738 51.1365 276.436 49.0564 279.514 48.4463C281.26 48.0999 281.942 48.1209 283.689 48.5762ZM362.336 48.4723C370.105 50.1209 373.231 59.3822 367.986 65.2154C364.198 69.4289 357.745 69.7251 353.584 65.8765C351.269 63.7354 350.394 61.6813 350.391 58.3776C350.389 56.2429 350.501 55.6171 351.122 54.284C352.108 52.1689 353.525 50.6644 355.55 49.5856C358.044 48.2559 359.889 47.9532 362.336 48.4723ZM424.72 48.857C426.539 49.4895 428.469 51.0069 429.609 52.6986C430.154 53.5078 430.6 54.2663 430.6 54.3839C430.6 54.5013 426.379 54.5976 421.22 54.5976C416.061 54.5976 411.84 54.5013 411.84 54.3839C411.84 54.2663 412.279 53.5182 412.815 52.7216C415.387 48.9024 420.281 47.3137 424.72 48.857Z" fill="#011632"/>
</svg>
