<svg width="35" height="32" viewBox="0 0 35 32" fill="none" xmlns="http://www.w3.org/2000/svg">
<path fill-rule="evenodd" clip-rule="evenodd" d="M8.67791 0.223401C5.18833 0.991699 2.511 3.15073 0.988909 6.42411C-0.65129 9.95125 -0.224778 14.2299 2.0721 17.291C2.80325 18.2656 4.42366 19.7714 5.15314 20.1543L5.69474 20.4385L5.77146 21.866C6.02852 26.6492 9.57957 30.7283 14.4015 31.7799C15.8997 32.1064 18.4917 32.0147 19.8543 31.5868C24.3606 30.1717 27.4311 26.3601 27.7348 21.8041L27.8257 20.4406L28.4939 20.024C30.6832 18.659 32.4572 16.1993 33.1669 13.5445C33.4777 12.3821 33.6673 10 33.2455 8.48402C32.1662 4.60532 29.4173 1.689 25.669 0.446657C24.9851 0.219978 24.1593 0.0970383 22.9466 0.0416708C20.9566 -0.0492687 19.4623 0.235755 17.6772 1.04662L16.6769 1.50102L15.5192 0.973987C13.4697 0.040778 10.8253 -0.249306 8.67791 0.223401ZM13.5568 1.77846C13.8957 1.8685 14.4476 2.06318 14.783 2.21113L15.3931 2.48022L14.9445 2.90366C14.3544 3.46091 14.2505 3.82199 14.5779 4.17846C14.97 4.60547 15.3333 4.53105 16.0543 3.87617L16.703 3.28677L17.4175 3.86873C18.1177 4.43892 18.3659 4.48402 18.8348 4.12636C19.1512 3.8851 19.0473 3.424 18.5705 2.95412C18.3213 2.70854 18.1174 2.48409 18.1174 2.45537C18.1174 2.36368 19.7727 1.78887 20.4992 1.62858C21.4212 1.42482 23.42 1.43226 24.4607 1.64316C24.9176 1.73574 25.9293 2.11319 26.7093 2.48186C32.4092 5.1776 33.7991 12.7272 29.4392 17.311C28.879 17.8999 28.2167 18.4984 27.9675 18.641L27.5144 18.9001L27.414 18.3722C27.2864 17.7017 26.8537 17.2605 26.4306 17.3694C25.9141 17.5025 25.7717 17.9347 25.9724 18.7591C26.0694 19.1577 26.1106 19.5449 26.0638 19.6193C26.0171 19.6938 25.6685 19.8404 25.2891 19.9451C24.4831 20.1676 24.1972 20.5503 24.442 21.0795C24.6214 21.4677 25.1873 21.5494 25.8857 21.2877C26.2529 21.1501 26.2731 21.1681 26.2731 21.6324C26.2731 23.3109 25.1956 25.9386 23.9285 27.3511C22.0935 29.3962 19.5598 30.5226 16.7882 30.5252C15.0665 30.5268 14.0753 30.3114 12.6047 29.6162C9.5187 28.1572 7.59562 25.4086 7.18436 21.8692L7.10537 21.1895L7.83062 21.3358C8.77034 21.5256 9.05549 21.4114 9.05549 20.8455C9.05549 20.3489 8.75131 20.0951 7.79906 19.7973C7.36681 19.6621 7.2495 19.5459 7.2495 19.4977C7.2495 19.3488 7.37028 18.8095 7.41906 18.4589C7.49458 17.938 7.68829 17.4637 7.19252 17.2682C6.81494 17.1194 6.36185 17.4915 6.1353 18.0868C6.04915 18.3132 5.89199 18.8233 5.89199 18.8233C5.89022 18.8279 5.41881 18.6005 4.96753 18.251C1.44382 15.5219 0.431906 10.2324 2.6717 6.25146C3.73541 4.36093 5.99711 2.53782 8.11305 1.86523C9.63847 1.38016 11.9192 1.34385 13.5568 1.77846ZM13.3964 4.87189C13.0139 4.96164 11.8681 7.3472 11.9858 7.80889C12.0843 8.19557 12.5212 8.40603 12.9445 8.27073C13.2522 8.1725 14.394 5.80763 14.3176 5.4269C14.2517 5.09931 13.7402 4.79107 13.3964 4.87189ZM19.3593 4.99483C19.1995 5.10507 18.9355 5.49924 19.4554 6.45924C19.693 6.89786 19.9604 7.46359 20.0499 7.71632C20.3506 8.56633 21.4402 8.48298 21.4399 7.61005C21.4398 7.18154 20.7884 5.70195 20.4078 5.28685C20.0666 4.91475 19.532 4.87565 19.3593 4.99483ZM11.6428 9.42794C11.5502 9.53779 11.465 10.0431 11.4534 10.5506L11.4323 11.4734L10.7347 11.9344C9.63333 12.662 9.44183 13.0109 9.89688 13.4595C10.2165 13.7743 10.6593 13.7539 11.1622 13.401L11.5788 13.1088L11.987 14.3312C12.4788 15.8041 13.4352 17.362 14.5491 18.5043L15.3715 19.3479L14.862 19.5861C14.2822 19.8574 14.0987 20.2416 14.3386 20.683C14.5588 21.0886 15.0908 21.0697 15.9824 20.6245L16.7069 20.2627L17.5587 20.6861C18.4683 21.1383 18.933 21.1337 19.1847 20.6701C19.3883 20.2951 19.142 19.8637 18.5531 19.5635L18.0916 19.3283L18.9191 18.4734C19.3741 18.0032 19.9937 17.2377 20.2957 16.7725C20.913 15.8215 21.7422 13.8859 21.7422 13.3959V13.0737L22.2508 13.3834C22.8465 13.7463 23.2943 13.7791 23.5476 13.4783C23.891 13.0706 23.6577 12.6009 22.8426 12.0588L22.0551 11.5352L22.0497 10.6695C22.0427 9.57023 21.8622 9.2282 21.2891 9.2282C20.7697 9.2282 20.5339 9.5674 20.5339 10.3147V10.8254L19.5144 10.5357C17.7229 10.0269 14.7885 10.1456 13.096 10.7956C12.8693 10.8827 12.8355 10.8118 12.8562 10.293C12.8695 9.96078 12.7929 9.58526 12.6863 9.4586C12.4477 9.17522 11.87 9.15825 11.6428 9.42794ZM18.5708 11.8199C19.1109 11.9327 19.7661 12.1158 20.0269 12.2267L20.5011 12.4282L20.2894 13.2468C19.9121 14.7057 19.0679 16.1768 17.9304 17.3568C17.3476 17.9614 16.7953 18.4561 16.703 18.4561C16.3834 18.4561 14.5659 16.4334 14.091 15.5492C13.8285 15.0605 13.4629 14.1678 13.2783 13.5653C12.8962 12.3176 12.8814 12.3453 14.115 11.9951C15.6224 11.567 17.0853 11.5096 18.5708 11.8199ZM8.47628 13.9194C8.09871 14.0682 7.04149 15.4822 7.04149 16.0775C7.04149 16.5985 7.38448 16.8189 7.78063 16.8189C8.04615 16.8189 8.25487 16.6467 8.54742 16.1863C8.76838 15.8384 9.1091 15.3645 9.30439 15.133C9.73105 14.6277 9.75476 14.2708 9.38338 13.9396C9.08041 13.6695 8.47628 13.9194 8.47628 13.9194ZM24.0939 13.9271C23.9031 14.1151 23.8059 14.5844 24.624 15.7398C25.4012 16.8374 25.8114 17.0655 26.2429 16.6403C26.5626 16.3252 26.4392 15.8332 25.8061 14.8989C24.9993 13.7084 24.4225 13.6033 24.0939 13.9271ZM11.2113 20.3523C10.4777 20.3934 10.2239 20.4711 10.0574 20.7053C9.76866 21.1117 9.91833 21.5728 10.3977 21.7529C10.8259 21.9139 12.7385 21.7837 13.1608 21.5649C13.8879 21.1882 13.4816 20.2179 12.6191 20.2709C12.362 20.2867 11.7284 20.3233 11.2113 20.3523ZM20.1769 20.4665C19.8242 20.8138 19.8715 21.2395 20.2929 21.5116C20.8068 21.8435 23.2016 21.8974 23.4056 21.5817C23.6092 21.2668 23.5888 20.7521 23.3657 20.5766C23.262 20.495 22.5576 20.3819 21.8005 20.3255C20.6343 20.2387 20.3862 20.2602 20.1769 20.4665Z" fill="#222222"/>
</svg>
