<svg width="24" height="24" viewBox="0 0 24 24" fill="none" xmlns="http://www.w3.org/2000/svg">
<path d="M5 5.33333C5 3.49238 6.49239 2 8.33333 2H11.6667V8.66667H8.33333C6.49238 8.66667 5 7.17428 5 5.33333V5.33333Z" stroke="#222222" stroke-width="1.5"/>
<path d="M18.333 5.33333C18.333 3.49238 16.8406 2 14.9997 2H11.6663V8.66667H14.9997C16.8406 8.66667 18.333 7.17428 18.333 5.33333V5.33333Z" stroke="#222222" stroke-width="1.5"/>
<path d="M18.333 11.9998C18.333 10.1589 16.8406 8.6665 14.9997 8.6665V8.6665C13.1587 8.6665 11.6663 10.1589 11.6663 11.9998V11.9998C11.6663 13.8408 13.1587 15.3332 14.9997 15.3332V15.3332C16.8406 15.3332 18.333 13.8408 18.333 11.9998V11.9998Z" stroke="#222222" stroke-width="1.5"/>
<path d="M5 11.9998C5 10.1589 6.49239 8.6665 8.33333 8.6665H11.6667V15.3332H8.33333C6.49238 15.3332 5 13.8408 5 11.9998V11.9998Z" stroke="#222222" stroke-width="1.5"/>
<path d="M5 18.6668C5 16.8259 6.49239 15.3335 8.33333 15.3335H11.6667V18.6668C11.6667 20.5078 10.1743 22.0002 8.33333 22.0002V22.0002C6.49238 22.0002 5 20.5078 5 18.6668V18.6668Z" stroke="#222222" stroke-width="1.5"/>
</svg>
