<svg width="227" height="32" viewBox="0 0 227 32" fill="none" xmlns="http://www.w3.org/2000/svg">
<path fill-rule="evenodd" clip-rule="evenodd" d="M8.67791 0.223401C5.18833 0.991699 2.511 3.15073 0.988909 6.42411C-0.65129 9.95125 -0.224778 14.2299 2.0721 17.291C2.80325 18.2656 4.42366 19.7714 5.15314 20.1543L5.69474 20.4385L5.77146 21.866C6.02852 26.6492 9.57957 30.7283 14.4015 31.7799C15.8997 32.1064 18.4917 32.0147 19.8543 31.5868C24.3606 30.1717 27.4311 26.3601 27.7348 21.8041L27.8257 20.4406L28.4939 20.024C30.6832 18.659 32.4572 16.1993 33.1669 13.5445C33.4777 12.3821 33.5226 9.48063 33.2455 8.48402C32.1662 4.60532 29.4173 1.689 25.669 0.446657C24.9851 0.219978 24.1593 0.0970383 22.9466 0.0416709C20.9566 -0.0492687 19.4623 0.235755 17.6772 1.04662L16.6769 1.50102L15.5192 0.973987C13.4697 0.040778 10.8253 -0.249306 8.67791 0.223401ZM13.5568 1.77846C13.8957 1.8685 14.4476 2.06318 14.783 2.21113L15.3931 2.48022L14.9445 2.90366C14.3544 3.46091 14.2505 3.82199 14.5779 4.17846C14.97 4.60547 15.3333 4.53105 16.0543 3.87617L16.703 3.28677L17.4175 3.86873C18.1177 4.43892 18.3659 4.48402 18.8348 4.12636C19.1512 3.8851 19.0473 3.424 18.5705 2.95412C18.3213 2.70854 18.1174 2.48409 18.1174 2.45537C18.1174 2.36368 19.7727 1.78887 20.4992 1.62858C21.4212 1.42482 23.42 1.43226 24.4607 1.64316C24.9176 1.73574 25.9293 2.11319 26.7093 2.48186C32.4092 5.1776 33.7991 12.7272 29.4392 17.311C28.879 17.8999 28.2167 18.4984 27.9675 18.641L27.5144 18.9001L27.414 18.3722C27.2864 17.7017 26.8537 17.2605 26.4306 17.3694C25.9141 17.5025 25.7717 17.9347 25.9724 18.7591C26.0694 19.1577 26.1106 19.5449 26.0638 19.6193C26.0171 19.6938 25.6685 19.8404 25.2891 19.9451C24.4831 20.1676 24.1972 20.5503 24.442 21.0795C24.6214 21.4677 25.1873 21.5494 25.8857 21.2877C26.2529 21.1501 26.2731 21.1681 26.2731 21.6324C26.2731 23.3109 25.1956 25.9386 23.9285 27.3511C22.0935 29.3962 19.5598 30.5226 16.7882 30.5252C15.0665 30.5268 14.0753 30.3114 12.6047 29.6162C9.5187 28.1572 7.59562 25.4086 7.18436 21.8692L7.10537 21.1895L7.83062 21.3358C8.77034 21.5256 9.05549 21.4114 9.05549 20.8455C9.05549 20.3489 8.75131 20.0951 7.79906 19.7973C7.36681 19.6621 7.2495 19.5459 7.2495 19.4977C7.2495 19.3488 7.37028 18.8095 7.41906 18.4589C7.49458 17.938 7.68829 17.4637 7.19252 17.2682C6.81494 17.1194 6.36185 17.4915 6.1353 18.0868C6.04915 18.3132 5.89199 18.8233 5.89199 18.8233C5.89022 18.8279 5.41881 18.6005 4.96753 18.251C1.44382 15.5219 0.431906 10.2324 2.6717 6.25146C3.73541 4.36093 5.99711 2.53782 8.11305 1.86523C9.63847 1.38016 11.9192 1.34385 13.5568 1.77846ZM13.3964 4.87189C13.0139 4.96164 11.8681 7.3472 11.9858 7.80889C12.0843 8.19557 12.5212 8.40603 12.9445 8.27073C13.2522 8.1725 14.394 5.80763 14.3176 5.4269C14.2517 5.09931 13.7402 4.79107 13.3964 4.87189ZM19.3593 4.99483C19.1995 5.10507 18.9355 5.49924 19.4554 6.45924C19.693 6.89786 19.9604 7.46359 20.0499 7.71632C20.3506 8.56633 21.4402 8.48298 21.4399 7.61005C21.4398 7.18154 20.7884 5.70195 20.4078 5.28685C20.0666 4.91475 19.532 4.87565 19.3593 4.99483ZM11.6428 9.42794C11.5502 9.53779 11.465 10.0431 11.4534 10.5506L11.4323 11.4734L10.7347 11.9344C9.63333 12.662 9.44183 13.0109 9.89688 13.4595C10.2165 13.7743 10.6593 13.7539 11.1622 13.401L11.5788 13.1088L11.987 14.3312C12.4788 15.8041 13.4352 17.362 14.5491 18.5043L15.3715 19.3479L14.862 19.5861C14.2822 19.8574 14.0987 20.2416 14.3386 20.683C14.5588 21.0886 15.0908 21.0697 15.9824 20.6245L16.7069 20.2627L17.5587 20.6861C18.4683 21.1383 18.933 21.1337 19.1847 20.6701C19.3883 20.2951 19.142 19.8637 18.5531 19.5635L18.0916 19.3283L18.9191 18.4734C19.3741 18.0032 19.9937 17.2377 20.2957 16.7725C20.913 15.8215 21.7422 13.8859 21.7422 13.3959V13.0737L22.2508 13.3834C22.8465 13.7463 23.2943 13.7791 23.5476 13.4783C23.891 13.0706 23.6577 12.6009 22.8426 12.0588L22.0551 11.5352L22.0497 10.6695C22.0427 9.57023 21.8622 9.2282 21.2891 9.2282C20.7697 9.2282 20.5339 9.5674 20.5339 10.3147V10.8254L19.5144 10.5357C17.7229 10.0269 14.7885 10.1456 13.096 10.7956C12.8693 10.8827 12.8355 10.8118 12.8562 10.293C12.8695 9.96078 12.7929 9.58526 12.6863 9.4586C12.4477 9.17522 11.87 9.15825 11.6428 9.42794ZM18.5708 11.8199C19.1109 11.9327 19.7661 12.1158 20.0269 12.2267L20.5011 12.4282L20.2894 13.2468C19.9121 14.7057 19.0678 16.1768 17.9304 17.3568C17.3476 17.9614 16.7953 18.4561 16.703 18.4561C16.3834 18.4561 14.5659 16.4334 14.091 15.5492C13.8285 15.0605 13.4629 14.1678 13.2783 13.5653C12.8962 12.3176 12.8814 12.3453 14.115 11.9951C15.6224 11.567 17.0853 11.5096 18.5708 11.8199ZM8.47628 13.9194C8.09871 14.0682 7.04149 15.4822 7.04149 16.0775C7.04149 16.5985 7.38448 16.8189 7.78063 16.8189C8.04615 16.8189 8.25487 16.6467 8.54742 16.1863C8.76838 15.8384 9.1091 15.3645 9.30439 15.133C9.73105 14.6277 9.75476 14.2708 9.38338 13.9396C9.08041 13.6695 8.47628 13.9194 8.47628 13.9194ZM24.0939 13.9271C23.9031 14.1151 23.8059 14.5844 24.624 15.7398C25.4012 16.8374 25.8114 17.0655 26.2429 16.6403C26.5626 16.3252 26.4392 15.8332 25.8061 14.8989C24.9993 13.7084 24.4225 13.6033 24.0939 13.9271ZM11.2113 20.3523C10.4777 20.3934 10.2239 20.4711 10.0574 20.7053C9.76866 21.1117 9.91833 21.5728 10.3977 21.7529C10.8259 21.9139 12.7385 21.7837 13.1608 21.5649C13.8879 21.1882 13.4816 20.2179 12.6191 20.2709C12.362 20.2867 11.7284 20.3233 11.2113 20.3523ZM20.1769 20.4665C19.8242 20.8138 19.8715 21.2395 20.2929 21.5116C20.8068 21.8435 23.2016 21.8974 23.4056 21.5817C23.6092 21.2668 23.5888 20.7521 23.3657 20.5766C23.262 20.495 22.5576 20.3819 21.8005 20.3255C20.6343 20.2387 20.3862 20.2602 20.1769 20.4665Z" fill="#222222"/>
<path d="M55.0772 23.9667H54.9005C54.712 25.1972 54.0759 26.2189 52.9921 27.0315C51.9083 27.8442 50.4357 28.2505 48.5744 28.2505C47.1608 28.2505 45.8414 27.9835 44.6162 27.4494C43.391 26.9154 42.319 26.126 41.4001 25.0811C40.4813 24.0363 39.7626 22.7361 39.2443 21.1804C38.726 19.6248 38.4668 17.8253 38.4668 15.7821C38.4668 13.7389 38.7377 11.9278 39.2796 10.3489C39.8215 8.77008 40.5755 7.44662 41.5415 6.37856C42.5311 5.3105 43.7091 4.49785 45.0756 3.94061C46.4422 3.38336 47.9618 3.10474 49.6347 3.10474C51.8494 3.10474 53.7578 3.58072 55.3599 4.53268C56.9621 5.46142 58.2226 6.86615 59.1415 8.74686L54.7591 11.2196C54.3822 10.2677 53.7931 9.46663 52.9921 8.81651C52.191 8.14317 51.0719 7.8065 49.6347 7.8065C47.9618 7.8065 46.6306 8.28248 45.6411 9.23445C44.6515 10.1864 44.1567 11.684 44.1567 13.7272V17.628C44.1567 19.648 44.6515 21.1456 45.6411 22.1208C46.6306 23.0727 47.9618 23.5487 49.6347 23.5487C50.2944 23.5487 50.9187 23.4791 51.5077 23.3398C52.0968 23.1772 52.6151 22.945 53.0628 22.6432C53.5104 22.3181 53.852 21.935 54.0877 21.4939C54.3468 21.0527 54.4764 20.5303 54.4764 19.9266V18.7076H49.882V14.2845H59.6009V27.8326H55.0772V23.9667ZM64.5399 27.8326V9.5479H69.7704V13.5183H69.9471C70.0414 13.0075 70.2063 12.5199 70.4419 12.0555C70.6775 11.5679 70.9838 11.1384 71.3608 10.7669C71.7613 10.3954 72.2326 10.1051 72.7745 9.89618C73.3164 9.66399 73.9525 9.5479 74.6829 9.5479H75.6018V14.3542H74.2941C72.7627 14.3542 71.62 14.5515 70.866 14.9462C70.1356 15.3409 69.7704 16.0723 69.7704 17.1404V27.8326H64.5399ZM86.3954 28.2505C84.9817 28.2505 83.7212 28.0299 82.6138 27.5888C81.5065 27.1244 80.564 26.4859 79.7865 25.6732C79.0326 24.8373 78.4553 23.8273 78.0548 22.6432C77.6778 21.459 77.4893 20.1356 77.4893 18.6728C77.4893 17.2333 77.6778 15.933 78.0548 14.7721C78.4318 13.5879 78.9855 12.5779 79.7158 11.7421C80.4698 10.9062 81.3887 10.2677 82.4725 9.82652C83.5563 9.36215 84.7932 9.12996 86.1833 9.12996C87.7148 9.12996 89.0224 9.38537 90.1062 9.89618C91.2136 10.407 92.1089 11.0919 92.7921 11.951C93.499 12.8101 94.0055 13.8085 94.3118 14.9462C94.6417 16.0607 94.8066 17.2333 94.8066 18.4638V19.9963H82.8966V20.2749C82.8966 21.4823 83.2264 22.4458 83.8861 23.1656C84.5458 23.8622 85.5825 24.2104 86.9962 24.2104C88.08 24.2104 88.9635 24.0015 89.6468 23.5835C90.33 23.1424 90.9662 22.62 91.5552 22.0163L94.1704 25.2205C93.3458 26.1724 92.262 26.9154 90.9191 27.4494C89.5996 27.9835 88.0917 28.2505 86.3954 28.2505ZM86.2893 12.9262C85.2291 12.9262 84.3927 13.2745 83.7801 13.971C83.1911 14.6444 82.8966 15.5499 82.8966 16.6876V16.9662H89.3994V16.6528C89.3994 15.5383 89.1402 14.6444 88.6219 13.971C88.1271 13.2745 87.3496 12.9262 86.2893 12.9262ZM106.24 28.2505C104.827 28.2505 103.566 28.0299 102.459 27.5888C101.352 27.1244 100.409 26.4859 99.6316 25.6732C98.8776 24.8373 98.3004 23.8273 97.8999 22.6432C97.5229 21.459 97.3344 20.1356 97.3344 18.6728C97.3344 17.2333 97.5229 15.933 97.8999 14.7721C98.2768 13.5879 98.8305 12.5779 99.5609 11.7421C100.315 10.9062 101.234 10.2677 102.318 9.82652C103.401 9.36215 104.638 9.12996 106.028 9.12996C107.56 9.12996 108.867 9.38537 109.951 9.89618C111.059 10.407 111.954 11.0919 112.637 11.951C113.344 12.8101 113.851 13.8085 114.157 14.9462C114.487 16.0607 114.652 17.2333 114.652 18.4638V19.9963H102.742V20.2749C102.742 21.4823 103.071 22.4458 103.731 23.1656C104.391 23.8622 105.428 24.2104 106.841 24.2104C107.925 24.2104 108.809 24.0015 109.492 23.5835C110.175 23.1424 110.811 22.62 111.4 22.0163L114.016 25.2205C113.191 26.1724 112.107 26.9154 110.764 27.4494C109.445 27.9835 107.937 28.2505 106.24 28.2505ZM106.134 12.9262C105.074 12.9262 104.238 13.2745 103.625 13.971C103.036 14.6444 102.742 15.5499 102.742 16.6876V16.9662H109.244V16.6528C109.244 15.5383 108.985 14.6444 108.467 13.971C107.972 13.2745 107.195 12.9262 106.134 12.9262ZM124.848 27.8326C123.034 27.8326 121.656 27.3798 120.713 26.4743C119.795 25.5687 119.335 24.2453 119.335 22.5039V13.5531H116.72V9.5479H118.027C118.734 9.5479 119.217 9.38537 119.477 9.06031C119.736 8.71203 119.865 8.22444 119.865 7.59754V4.60234H124.566V9.5479H128.241V13.5531H124.566V23.8273H127.958V27.8326H124.848ZM137.529 27.8326H132.157V3.52267H143.855C144.986 3.52267 146.011 3.70842 146.93 4.07992C147.849 4.45142 148.626 4.98544 149.263 5.682C149.922 6.35534 150.429 7.16799 150.782 8.11995C151.136 9.07192 151.313 10.1284 151.313 11.2893C151.313 12.9378 150.935 14.3774 150.181 15.608C149.451 16.8385 148.332 17.7325 146.824 18.2897L151.666 27.8326H145.693L141.381 18.9166H137.529V27.8326ZM143.184 14.4586C143.985 14.4586 144.609 14.2613 145.057 13.8666C145.528 13.4486 145.764 12.8449 145.764 12.0555V10.5231C145.764 9.73365 145.528 9.14157 145.057 8.74686C144.609 8.32892 143.985 8.11995 143.184 8.11995H137.529V14.4586H143.184ZM162.699 28.2505C161.332 28.2505 160.107 28.0299 159.023 27.5888C157.963 27.1476 157.057 26.5091 156.301 25.6732C155.572 24.8373 155.006 23.8273 154.605 22.6432C154.205 21.459 154.004 20.1356 154.004 18.6728C154.004 17.21 154.205 15.8866 154.605 14.7024C155.006 13.5183 155.572 12.5199 156.301 11.7072C157.057 10.8714 157.963 10.2328 159.023 9.79169C160.107 9.35054 161.332 9.12996 162.699 9.12996C164.066 9.12996 165.279 9.35054 166.339 9.79169C167.423 10.2328 168.33 10.8714 169.061 11.7072C169.814 12.5199 170.391 13.5183 170.791 14.7024C171.193 15.8866 171.392 17.21 171.392 18.6728C171.392 20.1356 171.193 21.459 170.791 22.6432C170.391 23.8273 169.814 24.8373 169.061 25.6732C168.33 26.5091 167.423 27.1476 166.339 27.5888C165.279 28.0299 164.066 28.2505 162.699 28.2505ZM162.699 24.1756C163.735 24.1756 164.537 23.8622 165.102 23.2353C165.667 22.6084 165.951 21.7144 165.951 20.5535V16.8269C165.951 15.666 165.667 14.7721 165.102 14.1452C164.537 13.5183 163.735 13.2048 162.699 13.2048C161.661 13.2048 160.861 13.5183 160.296 14.1452C159.73 14.7721 159.447 15.666 159.447 16.8269V20.5535C159.447 21.7144 159.73 22.6084 160.296 23.2353C160.861 23.8622 161.661 24.1756 162.699 24.1756ZM186.076 24.7677H185.899C185.734 25.2321 185.509 25.6732 185.227 26.0912C184.969 26.5091 184.626 26.8806 184.203 27.2056C183.779 27.5307 183.271 27.7861 182.682 27.9719C182.117 28.1576 181.457 28.2505 180.704 28.2505C178.794 28.2505 177.346 27.6352 176.357 26.4046C175.39 25.1508 174.907 23.363 174.907 21.0411V9.5479H180.139V20.5883C180.139 21.7028 180.338 22.5619 180.738 23.1656C181.14 23.7693 181.823 24.0711 182.789 24.0711C183.189 24.0711 183.59 24.0131 183.99 23.897C184.39 23.7809 184.744 23.6184 185.05 23.4094C185.357 23.1772 185.604 22.8986 185.793 22.5735C185.981 22.2485 186.076 21.8654 186.076 21.4242V9.5479H191.306V27.8326H186.076V24.7677ZM202.676 27.8326C200.862 27.8326 199.483 27.3798 198.54 26.4743C197.622 25.5687 197.161 24.2453 197.161 22.5039V13.5531H194.547V9.5479H195.855C196.562 9.5479 197.044 9.38537 197.303 9.06031C197.563 8.71203 197.692 8.22444 197.692 7.59754V4.60234H202.393V9.5479H206.068V13.5531H202.393V23.8273H205.785V27.8326H202.676ZM217.303 28.2505C215.889 28.2505 214.63 28.0299 213.521 27.5888C212.414 27.1244 211.472 26.4859 210.694 25.6732C209.94 24.8373 209.363 23.8273 208.963 22.6432C208.585 21.459 208.397 20.1356 208.397 18.6728C208.397 17.2333 208.585 15.933 208.963 14.7721C209.339 13.5879 209.893 12.5779 210.624 11.7421C211.378 10.9062 212.296 10.2677 213.381 9.82652C214.464 9.36215 215.701 9.12996 217.091 9.12996C218.623 9.12996 219.931 9.38537 221.014 9.89618C222.121 10.407 223.016 11.0919 223.701 11.951C224.407 12.8101 224.913 13.8085 225.22 14.9462C225.549 16.0607 225.714 17.2333 225.714 18.4638V19.9963H213.805V20.2749C213.805 21.4823 214.134 22.4458 214.794 23.1656C215.454 23.8622 216.49 24.2104 217.904 24.2104C218.988 24.2104 219.872 24.0015 220.555 23.5835C221.237 23.1424 221.875 22.62 222.464 22.0163L225.078 25.2205C224.253 26.1724 223.171 26.9154 221.826 27.4494C220.508 27.9835 218.999 28.2505 217.303 28.2505ZM217.197 12.9262C216.137 12.9262 215.3 13.2745 214.689 13.971C214.1 14.6444 213.805 15.5499 213.805 16.6876V16.9662H220.307V16.6528C220.307 15.5383 220.049 14.6444 219.529 13.971C219.035 13.2745 218.257 12.9262 217.197 12.9262Z" fill="#222222"/>
</svg>
