<svg width="30" height="30" viewBox="0 0 30 30" fill="none" xmlns="http://www.w3.org/2000/svg">
<path d="M13.4667 7.8001C13.4667 7.13735 12.9274 6.59237 12.2698 6.675C10.7952 6.86029 9.37804 7.38625 8.13326 8.21799C6.55454 9.27285 5.32409 10.7722 4.59749 12.5263C3.87089 14.2805 3.68077 16.2107 4.05119 18.073C4.42161 19.9352 5.33592 21.6457 6.6785 22.9883C8.02109 24.3309 9.73164 25.2452 11.5939 25.6156C13.4561 25.9861 15.3863 25.7959 17.1405 25.0693C18.8947 24.3427 20.394 23.1123 21.4488 21.5336C22.2806 20.2888 22.8065 18.8716 22.9918 17.397C23.0745 16.7394 22.5295 16.2001 21.8667 16.2001H15.2667C14.2726 16.2001 13.4667 15.3942 13.4667 14.4001V7.8001Z" stroke="#2C2C2C" stroke-width="1.8"/>
<path d="M17.0667 5.4002C17.0667 4.73745 17.6067 4.19141 18.2627 4.28577C18.9545 4.38527 19.6327 4.57095 20.2813 4.83961C21.3004 5.26175 22.2264 5.88049 23.0064 6.6605C23.7864 7.44051 24.4052 8.36652 24.8273 9.38566C25.096 10.0342 25.2817 10.7125 25.3812 11.4043C25.4755 12.0603 24.9295 12.6002 24.2667 12.6002L18.2667 12.6002C17.604 12.6002 17.0667 12.0629 17.0667 11.4002V5.4002Z" stroke="#2C2C2C" stroke-width="1.8"/>
</svg>
