<svg width="32" height="32" viewBox="0 0 32 32" fill="none" xmlns="http://www.w3.org/2000/svg">
<path d="M4.52544 15.7935C4.57137 15.7713 4.61733 15.7502 4.66211 15.7302C5.44061 15.3817 6.22946 15.0554 7.01715 14.729C7.05963 14.729 7.13081 14.6813 7.17099 14.6658C7.23185 14.6402 7.29272 14.6158 7.35358 14.5903C7.4707 14.5414 7.58782 14.4937 7.70379 14.4449C7.93804 14.3483 8.17111 14.2517 8.40535 14.1551C8.87269 13.962 9.34002 13.7689 9.80735 13.5746C10.742 13.1883 11.6779 12.801 12.6125 12.4147C13.5472 12.0284 14.483 11.641 15.4177 11.2547C16.3523 10.8685 17.2881 10.4811 18.2228 10.0948C19.1575 9.70852 20.0933 9.32111 21.028 8.93483C21.2358 8.84825 21.4609 8.71949 21.6836 8.68175C21.8708 8.64956 22.0533 8.58741 22.2417 8.553C22.5988 8.48751 22.9926 8.46086 23.3348 8.60405C23.453 8.654 23.5621 8.72395 23.6528 8.81164C24.0869 9.22677 24.026 9.9083 23.9342 10.4922C23.2946 14.5614 22.655 18.6318 22.0143 22.701C21.927 23.2593 21.8076 23.872 21.3518 24.225C20.966 24.5236 20.4171 24.5569 19.9406 24.4304C19.4641 24.3027 19.0438 24.0352 18.6316 23.7722C16.9219 22.6777 15.211 21.5832 13.5013 20.4888C13.0948 20.2291 12.6424 19.8894 12.647 19.4177C12.6493 19.1335 12.8249 18.8804 13.0041 18.6551C14.4899 16.7814 16.6337 15.4938 18.2286 13.7067C18.4536 13.4547 18.6304 12.9996 18.3216 12.8542C18.1379 12.7677 17.9266 12.8853 17.7589 12.9974C15.6507 14.4127 13.5437 15.829 11.4356 17.2443C10.7478 17.706 10.0267 18.1811 9.19766 18.2943C8.45589 18.3964 7.70954 18.1966 6.99189 17.9924C6.39021 17.8215 5.78966 17.6461 5.19143 17.4652C4.87337 17.3697 4.54497 17.2665 4.29924 17.05C4.05352 16.8336 3.91231 16.4695 4.06043 16.1809C4.15344 16 4.33371 15.8856 4.52317 15.7924L4.52544 15.7935Z" fill="#222222"/>
</svg>
