<svg width="32" height="32" viewBox="0 0 32 32" fill="none" xmlns="http://www.w3.org/2000/svg">
<path d="M19.0527 20.578C15.0464 20.578 11.787 17.3174 11.7859 13.3111C11.787 12.2956 12.6139 11.4697 13.6273 11.4697C13.7315 11.4697 13.8345 11.4785 13.9332 11.496C14.1504 11.5322 14.3566 11.6057 14.5463 11.7165C14.5737 11.7329 14.5924 11.7593 14.5968 11.79L15.0201 14.4583C15.0256 14.4901 15.0157 14.5208 14.9949 14.5438C14.7613 14.8026 14.463 14.9891 14.1307 15.0823L13.9705 15.1273L14.0308 15.2819C14.577 16.6725 15.6891 17.7835 17.0808 18.3319L17.2355 18.3933L17.2804 18.2332C17.3736 17.9009 17.5601 17.6026 17.8189 17.369C17.8375 17.3514 17.8628 17.3426 17.888 17.3426C17.8935 17.3426 17.899 17.3426 17.9055 17.3437L20.5739 17.7671C20.6057 17.7725 20.632 17.7901 20.6484 17.8175C20.7581 18.0072 20.8316 18.2145 20.8689 18.4317C20.8864 18.5282 20.8941 18.6302 20.8941 18.7366C20.8941 19.751 20.0683 20.5769 19.0527 20.578Z" fill="#222222"/>
<path d="M26.1572 15.1203C25.9412 12.679 24.8225 10.4143 23.0075 8.74398C21.1814 7.06381 18.8125 6.13818 16.335 6.13818C10.8975 6.13818 6.47339 10.5624 6.47339 15.9999C6.47339 17.8248 6.97677 19.6026 7.92982 21.1511L5.80438 25.856L12.6095 25.1311C13.7929 25.6159 15.0453 25.8615 16.3339 25.8615C16.6728 25.8615 17.0205 25.844 17.3693 25.8078C17.6763 25.7749 17.9867 25.7266 18.2916 25.6652C22.8452 24.7451 26.1693 20.7037 26.1956 16.0525V15.9999C26.1956 15.7038 26.1825 15.4076 26.1561 15.1214L26.1572 15.1203ZM12.8716 23.066L9.1066 23.4674L10.2307 20.9767L10.0059 20.6752C9.98945 20.6532 9.97301 20.6313 9.95436 20.6061C8.97829 19.2582 8.46282 17.6658 8.46282 16.001C8.46282 11.6602 11.9942 8.12874 16.335 8.12874C20.4017 8.12874 23.8486 11.3015 24.181 15.3517C24.1985 15.5688 24.2084 15.7871 24.2084 16.0021C24.2084 16.0635 24.2073 16.1238 24.2062 16.1885C24.1228 19.8197 21.5861 22.9037 18.0372 23.6889C17.7663 23.7492 17.4888 23.7953 17.2124 23.8249C16.9251 23.8578 16.6301 23.8743 16.3372 23.8743C15.2943 23.8743 14.2809 23.6725 13.3235 23.2733C13.2171 23.2305 13.1129 23.1844 13.0153 23.1373L12.8727 23.0682L12.8716 23.066Z" fill="#222222"/>
</svg>
