<svg width="32" height="32" viewBox="0 0 32 32" fill="none" xmlns="http://www.w3.org/2000/svg">
<path d="M21.2746 5.88916H10.7254C7.811 5.88916 5.44006 8.2601 5.44006 11.1745V20.8255C5.44006 23.7399 7.811 26.1108 10.7254 26.1108H21.2746C24.189 26.1108 26.5599 23.7399 26.5599 20.8255V11.1745C26.5599 8.2601 24.189 5.88916 21.2746 5.88916ZM7.30456 11.1745C7.30456 9.2885 8.8394 7.75367 10.7254 7.75367H21.2746C23.1606 7.75367 24.6954 9.2885 24.6954 11.1745V20.8255C24.6954 22.7115 23.1606 24.2463 21.2746 24.2463H10.7254C8.8394 24.2463 7.30456 22.7115 7.30456 20.8255V11.1745Z" fill="#222222"/>
<path d="M16 20.915C18.7102 20.915 20.9163 18.7101 20.9163 15.9988C20.9163 13.2874 18.7113 11.0825 16 11.0825C13.2887 11.0825 11.0837 13.2874 11.0837 15.9988C11.0837 18.7101 13.2887 20.915 16 20.915ZM16 12.9482C17.6829 12.9482 19.0518 14.317 19.0518 16C19.0518 17.6829 17.6829 19.0517 16 19.0517C14.3171 19.0517 12.9482 17.6829 12.9482 16C12.9482 14.317 14.3171 12.9482 16 12.9482Z" fill="#222222"/>
<path d="M21.3713 11.8768C22.1011 11.8768 22.6959 11.2832 22.6959 10.5522C22.6959 9.82118 22.1023 9.22754 21.3713 9.22754C20.6403 9.22754 20.0467 9.82118 20.0467 10.5522C20.0467 11.2832 20.6403 11.8768 21.3713 11.8768Z" fill="#222222"/>
</svg>
