<svg width="98" height="98" viewBox="0 0 98 98" fill="none" xmlns="http://www.w3.org/2000/svg">
<path d="M17.8464 35.6309H93.3776V91.4589H17.8464V35.6309Z" fill="white"/>
<path d="M1.80347 48.4456V95.8088H96.53V1.08228H1.80347V48.4456ZM78.1379 44.6565C80.4067 45.183 82.4688 46.3696 84.064 48.0667C84.9422 48.9809 85.7057 49.9988 86.3375 51.0979C86.3375 51.2192 82.2453 53.9852 79.7521 55.5311C79.6611 55.5917 79.2974 55.1977 78.8957 54.599C78.4406 53.8136 77.7939 53.1564 77.016 52.6886C76.2382 52.2208 75.3544 51.9577 74.4474 51.9239C71.5753 51.7269 69.7262 53.2349 69.7414 55.713C69.7176 56.3299 69.8589 56.9421 70.1506 57.4863C70.7796 58.7973 71.9542 59.5778 75.6371 61.1692C82.4196 64.0868 85.322 66.0116 87.1256 68.7473C89.1414 71.7786 89.5885 76.6741 88.2244 80.2964C86.7088 84.237 82.9955 86.9121 77.7439 87.7988C75.3453 88.0735 72.9218 88.048 70.5295 87.723C66.8629 87.1186 63.4855 85.3582 60.8901 82.6987C60.0186 81.7363 58.3211 79.2279 58.4272 79.046C58.7039 78.8407 58.9951 78.6558 59.2987 78.4928L62.8074 76.5528L65.5279 74.9766L66.0963 75.8177C67.0555 77.1898 68.2762 78.359 69.6883 79.2582C72.7196 80.8496 76.8572 80.6298 78.9033 78.7884C79.5903 78.1136 80.0189 77.2192 80.1144 76.261C80.2099 75.3028 79.9664 74.3415 79.4262 73.5443C78.6684 72.4909 77.1528 71.6043 72.9166 69.7552C68.0287 67.6485 65.922 66.3451 63.9971 64.2687C62.7955 62.8985 61.9083 61.2819 61.3978 59.5324C61.0171 57.5336 60.9608 55.4865 61.2311 53.4699C62.239 48.7487 65.778 45.4522 70.9463 44.4746C73.3398 44.1785 75.7642 44.2449 78.1379 44.6716V44.6565ZM55.9037 48.6274V52.5074H43.6044V87.5411H34.882V52.4999H22.5524V48.7108C22.514 47.4041 22.5443 46.0964 22.6433 44.7929C22.7039 44.7247 30.2214 44.7247 39.3152 44.7247H55.8582L55.9037 48.6274Z" fill="#111111"/>
</svg>
