<svg width="98" height="98" viewBox="0 0 98 98" fill="none" xmlns="http://www.w3.org/2000/svg">
<g clip-path="url(#clip0_166_272)">
<path d="M57.4727 0.240967C56.7906 0.240967 56.1086 0.392529 55.5023 0.619873C56.7906 1.45347 57.4727 2.59019 57.8516 3.87847C57.8516 4.03003 57.9273 4.18159 57.9273 4.33315C57.9273 4.48472 58.0031 4.63628 58.0031 4.78784C58.0789 6.9855 57.3969 7.28862 56.9422 8.5769C56.1844 10.2441 56.4117 12.0628 57.3211 13.5027C57.3969 13.6542 57.4727 13.8816 57.6242 14.0332C56.6391 7.66753 61.9437 6.75815 62.9289 4.78784C63.0047 3.04487 61.5648 1.90815 60.4281 1.07456C59.2914 0.392529 58.382 0.240967 57.4727 0.240967ZM65.4297 1.60503C65.3539 2.21128 65.4297 2.05972 65.3539 2.36284C65.3539 2.59019 65.3539 2.81753 65.2781 3.04487C65.2023 3.27222 65.2023 3.42378 65.1266 3.65112C65.0508 3.87847 64.975 4.03003 64.8992 4.25737C64.8234 4.40894 64.7477 4.5605 64.6719 4.78784C64.5961 4.86362 64.5203 5.01519 64.4445 5.09097C64.3687 5.16675 64.3688 5.24253 64.293 5.31831C64.1414 5.46987 64.0656 5.69722 63.9141 5.84878L63.4594 6.30347C63.3078 6.45503 63.1562 6.60659 63.0047 6.68237C62.4742 7.06128 61.868 7.3644 61.3375 7.74331C61.1859 7.89487 60.9586 7.97065 60.807 8.12222C60.6555 8.27378 60.5039 8.34956 60.3523 8.50112L59.8977 8.95581C59.7461 9.10737 59.5945 9.25893 59.5187 9.48628C59.3672 9.63784 59.2914 9.86518 59.1398 10.0167C59.0641 10.2441 58.9883 10.3957 58.8367 10.623C58.7609 10.8503 58.6852 11.0019 58.6094 11.2292C58.5336 11.4566 58.4578 11.6839 58.4578 11.8355C58.4578 11.9113 58.4578 12.0628 58.382 12.1386C58.382 12.2144 58.382 12.366 58.3062 12.4417V13.5027C58.3062 13.73 58.3062 13.8816 58.382 14.1089C58.382 14.3363 58.4578 14.4878 58.5336 14.7152C58.6094 14.9425 58.6852 15.0941 58.7609 15.3214C58.8367 15.473 58.9125 15.5488 58.9125 15.7003L53.1531 13.5027C52.168 13.1996 51.2586 12.9722 50.2734 12.7449C49.743 12.5933 49.2125 12.5175 48.682 12.366C47.1664 12.0628 45.6508 11.8355 44.1352 11.6839H43.9836C42.468 11.5324 41.0281 11.4566 39.5125 11.4566C38.3758 11.4566 37.3148 11.5324 36.2539 11.6082C34.7383 11.6839 33.2227 11.9113 31.707 12.1386L30.5703 12.366C29.8125 12.5175 29.0547 12.6691 28.2969 12.8964C27.918 12.9722 27.5391 13.1238 27.1602 13.1996C26.7812 13.3511 26.4023 13.5027 26.0992 13.6542C25.7961 13.8058 25.5688 13.8816 25.2656 14.0332C25.1898 14.0332 25.1898 14.0332 25.1141 14.1089C24.8867 14.2605 24.6594 14.3363 24.432 14.4878C24.3562 14.4878 24.2805 14.5636 24.2805 14.5636C23.9773 14.7152 23.75 14.8667 23.5227 14.9425C23.3711 15.0183 23.1437 15.0941 22.9922 15.1699C22.9164 15.2457 22.8406 15.2457 22.7648 15.3214C22.5375 15.473 22.3102 15.5488 22.0828 15.7003C21.8555 15.8519 21.6281 15.9277 21.4766 16.0792C21.325 16.2308 21.0977 16.3066 20.9461 16.4582C20.9461 16.4582 20.8703 16.4582 20.8703 16.5339C20.7188 16.6097 20.5672 16.7613 20.4156 16.9128L20.3398 16.9886C20.1883 17.0644 20.1125 17.216 19.9609 17.2917C19.8852 17.2917 19.8852 17.3675 19.8094 17.3675C19.6578 17.4433 19.582 17.5949 19.4305 17.6707C19.4305 17.7464 19.3547 17.7464 19.3547 17.7464L18.9 18.2011L18.8242 18.2769L18.3695 18.7316C18.3695 18.7316 18.3695 18.8074 18.2938 18.8074L17.9148 19.1863C17.8391 19.2621 17.7633 19.2621 17.7633 19.3378L17.3086 19.7925C17.3086 19.8683 17.2328 19.8683 17.2328 19.9441L16.6266 20.5503L16.5508 20.6261C16.1719 21.0808 15.7172 21.4597 15.2625 21.8386C14.8078 22.2175 14.3531 22.5964 13.8227 22.9753C13.2922 23.3542 12.8375 23.6574 12.307 23.9605C11.7766 24.2636 11.2461 24.491 10.7156 24.7183C10.1852 24.9457 9.65469 25.173 9.12422 25.3246C8.06328 25.5519 7.00234 26.0066 6.09297 26.0824C6.09297 25.7035 5.86562 25.7792 5.63828 25.7792C5.41094 25.855 5.18359 25.855 5.03203 25.9308C4.80469 26.0066 4.65312 26.0824 4.42578 26.1582C4.19844 26.2339 4.04687 26.3097 3.81953 26.4613C3.66797 26.6128 3.44062 26.6886 3.28906 26.8402C3.1375 26.9918 2.91016 27.1433 2.75859 27.2949C2.60703 27.4464 2.37969 27.598 2.22812 27.7496C2.07656 27.9011 1.925 28.0527 1.77344 28.28C1.62188 28.5074 1.47031 28.6589 1.39453 28.8863C1.24297 29.0378 1.16719 29.2652 1.01562 29.4925C0.939844 29.7199 0.788281 29.9472 0.7125 30.1746L0.485156 30.8566C0.409375 31.0839 0.409375 31.2355 0.333594 31.4628V31.5386C0.257812 31.766 0.257812 32.0691 0.257812 32.2207C0.333594 32.1449 0.333594 32.2964 0.333594 32.448V32.7511C0.333594 32.9027 0.409375 33.0542 0.409375 33.2058C0.485156 33.3574 0.485156 33.5089 0.560937 33.6605C0.636719 33.8121 0.7125 33.9636 0.864062 34.1152C0.939844 34.2668 1.09141 34.4183 1.16719 34.5699C1.31875 34.7214 1.47031 34.873 1.62188 34.9488C1.77344 35.1003 1.925 35.2519 2.07656 35.3277C2.68281 35.8582 2.83438 36.0097 3.59219 36.4644C3.74375 36.5402 3.81953 36.616 3.97109 36.6917H4.04688V36.8433C4.04688 37.0707 4.12266 37.2222 4.19844 37.4496C4.27422 37.6769 4.35 37.9043 4.42578 38.0558L4.65312 38.5105C4.65312 38.5863 4.72891 38.5863 4.72891 38.6621C4.80469 38.8894 4.95625 39.041 5.03203 39.1925C5.18359 39.3441 5.25937 39.5714 5.41094 39.723L5.86562 40.1777L6.32031 40.6324H6.39609C6.54766 40.7839 6.69922 40.8597 6.85078 41.0113C7.00234 41.1628 7.22969 41.2386 7.38125 41.3144C7.53281 41.3902 7.76016 41.5417 7.9875 41.6175C8.13906 41.6933 8.29063 41.7691 8.51797 41.7691C8.51797 41.7691 8.59375 41.7691 8.59375 41.8449C8.66953 41.8449 8.82109 41.9207 8.89688 41.9207C8.82109 43.2847 8.82109 44.573 8.97266 45.0277C9.2 45.5582 10.3367 43.9667 11.3977 42.2238C11.2461 43.9667 11.1703 46.0128 11.3977 46.6191C11.7008 47.2253 13.1406 45.255 14.5047 43.1332C32.2375 39.041 48.4547 51.3175 50.1977 68.6714C49.8945 65.9433 46.5602 64.4277 44.9688 64.8066C44.2109 66.6253 42.9227 69.0503 40.8766 70.4902C41.0281 68.823 40.9523 67.1558 40.6492 65.4886C40.1187 67.7621 39.0578 69.9597 37.5422 71.7785C35.193 71.93 32.768 70.7933 31.5555 69.0503C31.4797 68.9746 31.4039 68.823 31.3281 68.7472C31.2523 68.5956 31.1766 68.3683 31.1008 68.2167C31.025 68.0652 30.9492 67.8378 30.9492 67.6863V67.1558V66.7769C30.9492 66.6253 31.025 66.398 31.1008 66.2464C31.1766 66.0949 31.1766 65.8675 31.2523 65.716C31.3281 65.5644 31.4039 65.3371 31.5555 65.1855C32.0102 63.973 32.0102 62.9878 31.1766 62.4574L30.7219 62.23C30.6461 62.23 30.4945 62.1542 30.4187 62.1542C30.343 62.1542 30.2672 62.0785 30.1914 62.0785C30.0398 62.0027 29.8125 62.0027 29.6609 61.9269C29.5094 61.8511 29.282 61.8511 29.1305 61.8511C28.9789 61.8511 28.7516 61.7753 28.6 61.7753H28.2211C27.9937 61.7753 27.8422 61.7753 27.6906 61.8511C27.5391 61.8511 27.3117 61.9269 27.1602 61.9269C27.0086 62.0027 26.7812 62.0027 26.6297 62.0785C26.4781 62.1542 26.3266 62.23 26.0992 62.3058L25.6445 62.5332C19.8094 66.3222 23.2953 75.2644 27.2359 77.841C25.7203 78.1441 24.2047 78.4472 23.75 78.7503L23.6742 78.8261C24.7352 79.5081 25.8719 80.0386 27.0844 80.4933C28.6758 81.0238 30.4187 81.4785 31.1766 81.7058C33.2227 82.1605 35.3445 82.3121 37.4664 82.1605C48.5305 81.4027 57.6242 72.9152 59.2914 61.8511C59.3672 62.0785 59.3672 62.3058 59.443 62.5332C59.5187 62.9878 59.5945 63.4425 59.6703 63.973C59.7461 64.2003 59.7461 64.4277 59.7461 64.655V64.7308C59.7461 64.9582 59.8219 65.1855 59.8219 65.4128C59.8219 65.716 59.8977 65.9433 59.8977 66.2464V69.4292C59.8977 69.6566 59.8219 69.8082 59.8219 70.0355V70.2628C59.8219 70.4902 59.7461 70.7175 59.7461 71.0207C59.6703 71.248 59.6703 71.4753 59.5945 71.7027V71.7785C59.5187 72.0058 59.5187 72.2332 59.443 72.4605V72.5363C59.3672 72.7636 59.3672 72.991 59.2914 73.2183V73.2941L59.0641 73.9761V74.0519C58.9883 74.2792 58.9125 74.5824 58.8367 74.8097C58.7609 75.0371 58.6852 75.2644 58.5336 75.5675C58.4578 75.7949 58.382 76.098 58.2305 76.3253C58.1547 76.5527 58.0031 76.78 57.9273 77.0832C57.8516 77.3105 57.7 77.5378 57.6242 77.7652C57.6242 77.841 57.5484 77.9167 57.5484 77.9167C57.5484 77.9167 57.5484 77.9925 57.4727 77.9925C55.8812 81.2511 53.4562 84.1308 50.425 86.4042C50.1977 86.5558 50.0461 86.7074 49.8188 86.8589C49.743 86.9347 49.6672 86.9347 49.6672 87.0105C49.5156 87.1621 49.2883 87.2378 49.1367 87.3894L49.2125 87.541C49.5914 87.4652 49.8945 87.4652 50.2734 87.3894C50.9555 87.3136 51.5617 87.1621 52.2437 87.0105C52.3953 87.0105 52.6227 86.9347 52.7742 86.8589C52.9258 86.8589 53.0016 86.7831 53.1531 86.7831C53.3047 86.7831 53.532 86.7074 53.6836 86.7074C53.8352 86.6316 53.9867 86.6316 54.1383 86.5558C56.6391 85.9496 59.0641 85.116 61.4133 84.1308C57.3969 89.5871 52.0922 93.9824 45.8781 96.8621C48.7578 96.6347 51.6375 96.18 54.4414 95.3464C64.5203 92.391 73.0078 85.5707 78.0852 76.4011C77.0242 82.1605 74.7508 87.6925 71.3406 92.5425C73.7656 90.9511 75.9633 89.0566 78.0094 87.0105C83.6172 81.1753 87.3305 73.673 88.543 65.716C89.3766 69.6566 89.6797 73.7488 89.3008 77.7652C107.412 52.53 90.8164 26.3855 83.8445 19.4894C83.8445 19.4136 83.7687 19.4136 83.7687 19.3378C83.7687 19.641 83.7687 19.9441 83.693 20.2472C83.6172 20.8535 83.5414 21.3839 83.4656 21.9144C83.3141 22.4449 83.1625 23.0511 83.0109 23.5816C82.8594 24.1121 82.632 24.6425 82.4047 25.173C82.1773 25.7035 81.95 26.2339 81.6469 26.6886C81.3438 27.1433 81.0406 27.6738 80.7375 28.1285C80.4344 28.5832 80.0555 29.0378 79.6766 29.4925C79.2977 29.9472 78.9187 30.3261 78.4641 30.7808C78.2367 31.0082 78.0094 31.2355 77.7062 31.3871C77.4789 31.5386 77.3273 31.6902 77.1 31.9175C76.6453 32.2964 76.1906 32.5996 75.6602 32.9027C75.2055 33.2058 74.675 33.5089 74.1445 33.7363L72.5531 34.4183C72.0227 34.6457 71.4922 34.7972 70.9617 34.9488C70.4312 35.1003 69.825 35.2519 69.2945 35.3277C68.6883 35.4035 68.1578 35.4792 67.6273 35.555C67.2484 35.555 66.7937 35.6308 66.4148 35.6308C65.8086 35.6308 65.2781 35.555 64.7477 35.555C64.1414 35.4792 63.6109 35.4035 63.0805 35.3277C62.4742 35.2519 61.9437 35.1003 61.4133 34.873C61.9437 34.7972 62.55 34.7972 63.0805 34.6457C63.6867 34.5699 64.2172 34.4183 64.7477 34.2668C65.2781 34.1152 65.8844 33.9636 66.3391 33.7363L67.9305 33.0542C68.4609 32.8269 68.9156 32.5238 69.4461 32.2207C69.9008 31.9175 70.4312 31.5386 70.8859 31.2355C71.3406 30.8566 71.7953 30.4777 72.1742 30.0988C72.6289 29.7199 73.0078 29.2652 73.3867 28.8863C73.7656 28.4316 74.1445 27.9769 74.4477 27.5222C74.5234 27.4464 74.5234 27.3707 74.5992 27.2949C74.8266 26.916 75.1297 26.4613 75.357 26.0824C75.6602 25.5519 75.8875 25.0972 76.1148 24.5667C76.3422 24.0363 76.5695 23.5058 76.7211 22.9753L77.1758 21.3839C77.2516 20.7777 77.4031 20.2472 77.4031 19.7167C77.4789 19.1105 77.4789 18.58 77.4789 18.0496C77.4789 17.6707 77.4789 17.216 77.4031 16.8371C77.3273 16.2308 77.2516 15.7003 77.1758 15.1699C77.1 14.5636 76.9484 14.0332 76.7969 13.5027C76.6453 12.9722 76.418 12.4417 76.2664 11.9113C76.0391 11.3808 75.8117 10.8503 75.5844 10.3957C75.2812 9.86519 75.0539 9.4105 74.7508 8.88003C74.4477 8.42534 74.0687 7.97065 73.7656 7.51597C73.3867 7.06128 73.0078 6.68237 72.6289 6.22769C72.4016 6.00034 72.1742 5.773 71.9469 5.62144C70.8102 4.71206 69.6734 3.95425 68.4609 3.19644C68.3094 3.12065 68.1578 3.04487 67.9305 2.96909C66.9453 2.1355 66.1875 1.90815 65.4297 1.60503Z" fill="#111111"/>
</g>
<defs>
<clipPath id="clip0_166_272">
<rect width="97" height="97" fill="white" transform="translate(0.333496 0.0136719)"/>
</clipPath>
</defs>
</svg>
