<svg width="114" height="114" viewBox="0 0 114 114" fill="none" xmlns="http://www.w3.org/2000/svg">
<path d="M110.675 46.0082C106.879 43.8012 101.847 43.5363 97.6095 44.7723C97.0798 40.1816 94.0782 36.209 90.547 33.384L89.1345 32.2363L87.8986 33.6488C85.515 36.3855 84.8087 40.9762 85.1618 44.5074C85.4267 47.0676 86.2212 49.716 87.8103 51.8348C86.5743 52.541 85.2501 53.5121 84.0142 53.9535C81.5423 54.8363 78.8056 55.7191 76.1571 55.7191H70.2423V43.2715H58.7657V21.2012H45.5236V31.7949H23.4532V43.2715H11.9767V55.6309H2.08917L1.91261 56.9551C1.4712 62.6051 2.17745 68.0785 4.56105 73.2871L5.53214 75.2293L5.62042 75.4059C12.5946 87.2355 24.7775 92.1793 38.1079 92.1793C63.8861 92.1793 85.1618 80.6145 94.8728 56.3371C101.406 56.6902 108.115 54.748 111.293 48.4801L112.088 46.891L110.675 46.0082ZM25.2189 34.4434H34.047V44.1543H25.2189V34.4434ZM36.7837 73.4637C36.7837 74.9645 35.5478 76.2004 34.047 76.2004C32.5462 76.2004 31.3103 74.9645 31.3103 73.4637C31.3103 71.9629 32.5462 70.727 34.047 70.727C35.5478 70.8152 36.7837 71.9629 36.7837 73.4637ZM25.2189 45.9199H34.047V55.6309H25.2189V45.9199ZM13.7423 45.9199H23.4532V55.6309H13.7423V45.9199ZM38.1962 90.2371C24.2478 90.1488 16.7439 85.4699 10.5642 79.2902C12.4181 79.3785 14.1837 79.4668 15.7728 79.4668C17.1853 79.4668 18.5978 79.4668 19.922 79.3785C23.365 79.202 26.3665 78.7605 28.8384 78.0543C30.8689 82.7332 34.5767 87.059 41.1978 90.2371H38.1962ZM45.5236 55.6309H35.8126V45.9199H45.5236V55.6309ZM45.5236 44.1543H35.8126V34.4434H45.5236V44.1543ZM57.0001 55.6309H47.2892V45.9199H57.0001V55.6309ZM57.0001 44.1543H47.2892V34.4434H57.0001V44.1543ZM57.0001 32.6777H47.2892V22.9668H57.0001V32.6777ZM68.4767 55.6309H58.7657V45.9199H68.4767V55.6309ZM34.7532 71.698C34.5767 71.6098 34.3118 71.5215 34.047 71.5215C32.9876 71.5215 32.1048 72.4043 32.1048 73.4637C32.1048 74.523 32.9876 75.4059 34.047 75.4059C35.1064 75.4059 35.9892 74.523 35.9892 73.4637C35.9892 73.1988 35.9009 72.934 35.8126 72.7574C35.6361 73.0223 35.4595 73.1988 35.1064 73.1988C34.665 73.1988 34.3118 72.8457 34.3118 72.4043C34.4001 72.0512 34.5767 71.7863 34.7532 71.698Z" fill="#111111"/>
</svg>
