<?xml version="1.0" standalone="no"?>
<!DOCTYPE svg PUBLIC "-//W3C//DTD SVG 20010904//EN"
 "http://www.w3.org/TR/2001/REC-SVG-20010904/DTD/svg10.dtd">
<svg version="1.0" xmlns="http://www.w3.org/2000/svg"
 width="180.000000pt" height="180.000000pt" viewBox="0 0 180.000000 180.000000"
 preserveAspectRatio="xMidYMid meet">
<metadata>
Created by potrace 1.14, written by Peter Selinger 2001-2017
</metadata>
<g transform="translate(0.000000,180.000000) scale(0.100000,-0.100000)"
fill="#000000" stroke="none">
<path d="M542 1441 c-29 -11 -68 -29 -87 -41 -50 -31 -120 -113 -152 -178 -25
-52 -28 -67 -28 -167 0 -100 3 -116 29 -172 19 -42 49 -82 91 -123 35 -33 67
-60 72 -60 5 0 13 -35 19 -77 20 -148 101 -261 231 -325 65 -32 73 -33 183
-33 107 0 119 2 175 29 75 37 163 124 198 196 16 32 31 86 36 129 7 55 14 77
28 85 50 28 116 104 151 175 35 71 37 80 37 175 0 95 -2 105 -34 168 -41 83
-128 168 -208 206 -47 22 -76 27 -151 30 -82 4 -103 1 -166 -22 l-73 -27 -49
22 c-71 32 -228 37 -302 10z m263 -52 c41 -18 40 -17 20 -39 -37 -41 9 -69 50
-30 l22 20 27 -21 c41 -32 81 -2 41 31 -25 21 -18 27 50 45 257 70 501 -147
454 -403 -15 -77 -42 -127 -102 -189 -56 -57 -67 -63 -67 -34 0 10 -7 24 -15
31 -24 20 -45 -4 -38 -46 5 -31 3 -35 -26 -45 -20 -7 -31 -18 -31 -30 0 -20 8
-23 49 -19 23 2 24 0 17 -41 -15 -97 -74 -191 -149 -243 -222 -150 -517 -28
-565 232 l-9 52 39 0 c32 0 39 3 36 18 -2 9 -18 23 -35 31 -30 13 -33 18 -30
55 3 52 -22 61 -44 16 l-14 -31 -47 41 c-102 89 -140 234 -99 371 20 63 31 80
84 134 60 59 110 90 172 106 42 11 174 4 210 -12z"/>
<path d="M750 1248 c-36 -59 -38 -98 -4 -98 22 0 66 100 52 117 -16 20 -27 16
-48 -19z"/>
<path d="M993 1264 c-6 -17 23 -88 44 -106 11 -9 17 -8 28 3 12 12 11 20 -6
59 -26 58 -53 77 -66 44z"/>
<path d="M700 1074 c0 -30 -7 -43 -37 -69 -44 -38 -38 -60 13 -50 22 4 34 2
34 -5 0 -26 57 -128 93 -167 l40 -44 -22 -21 c-20 -18 -21 -22 -8 -35 12 -12
19 -12 48 0 29 12 39 12 68 0 18 -8 40 -12 47 -9 20 8 17 34 -5 47 -17 11 -15
16 31 73 27 33 58 86 69 118 19 50 23 55 39 46 21 -14 50 -4 50 16 0 8 -13 23
-30 32 -23 14 -30 26 -32 58 -3 36 -6 41 -28 41 -18 0 -26 -6 -28 -23 -3 -20
-7 -21 -45 -15 -55 10 -140 10 -199 0 -44 -8 -47 -7 -50 15 -2 15 -11 24 -25
26 -20 3 -23 -1 -23 -34z m303 -65 c36 -9 38 -13 32 -37 -17 -72 -108 -202
-140 -202 -34 0 -135 160 -135 215 0 13 41 29 100 39 30 4 91 -2 143 -15z"/>
<path d="M568 923 c-39 -46 -47 -93 -14 -93 20 0 79 77 72 95 -7 20 -40 19
-58 -2z"/>
<path d="M1170 929 c0 -29 54 -99 77 -99 21 0 15 41 -13 77 -24 31 -64 45 -64
22z"/>
<path d="M670 691 c-16 -4 -25 -14 -25 -26 0 -17 8 -20 50 -23 61 -4 97 16 76
42 -14 16 -56 19 -101 7z"/>
<path d="M1033 693 c-20 -7 -15 -31 7 -43 12 -6 40 -10 63 -8 34 2 43 7 45 24
3 18 -4 22 -35 27 -43 8 -63 8 -80 0z"/>
</g>
</svg>
